<?xml version="1.0" standalone="no"?>
<!DOCTYPE svg PUBLIC "-//W3C//DTD SVG 20010904//EN"
 "http://www.w3.org/TR/2001/REC-SVG-20010904/DTD/svg10.dtd">
<svg version="1.0" xmlns="http://www.w3.org/2000/svg"
 width="500.000000pt" height="500.000000pt" viewBox="0 0 500.000000 500.000000"
 preserveAspectRatio="xMidYMid meet">
<metadata>
Created by potrace 1.14, written by Peter Selinger 2001-2017
</metadata>
<g transform="translate(0.000000,500.000000) scale(0.100000,-0.100000)"
fill="#000000" stroke="none">
<path d="M2345 4719 c-472 -28 -919 -192 -1280 -468 -94 -72 -251 -227 -335
-332 -183 -229 -318 -506 -396 -813 -123 -484 -86 -1106 92 -1555 291 -734
886 -1184 1734 -1313 132 -20 557 -17 700 5 617 95 1110 377 1444 827 297 398
452 928 433 1475 -19 528 -157 956 -423 1311 -390 521 -965 819 -1665 863 -90
6 -166 10 -169 9 -3 0 -64 -4 -135 -9z m313 -870 c571 -61 981 -429 1102 -988
44 -202 51 -517 16 -711 -103 -571 -459 -939 -1011 -1047 -125 -24 -415 -24
-539 1 -415 82 -701 298 -872 660 -51 109 -88 230 -116 386 -28 160 -31 480
-4 625 62 340 195 587 424 787 249 216 633 327 1000 287z"/>
</g>
</svg>
